<svg width="38" height="25" viewBox="0 0 38 25" fill="none" xmlns="http://www.w3.org/2000/svg">
<g clip-path="url(#clip0_2_39)">
<path d="M0 0H38V25H0V0Z" fill="#009B3A"/>
<path d="M19 1.41083L34.1778 12.4781L19 23.538L3.74815 12.4781L19 1.41083Z" fill="#FEDF00"/>
<path d="M19 18.3772C22.2892 18.3772 24.9556 15.7459 24.9556 12.5C24.9556 9.25411 22.2892 6.6228 19 6.6228C15.7108 6.6228 13.0444 9.25411 13.0444 12.5C13.0444 15.7459 15.7108 18.3772 19 18.3772Z" fill="white"/>
<path d="M15.9926 12.1126C14.963 12.1126 13.963 12.2661 13.0222 12.5512C13.0667 15.7602 15.7111 18.348 18.9704 18.348C20.9852 18.348 22.7704 17.3538 23.8444 15.8406C22 13.5746 19.163 12.1126 15.9926 12.1126ZM24.8074 13.5965C24.8741 13.231 24.9185 12.8582 24.9185 12.4708C24.9185 9.22515 22.2518 6.59357 18.963 6.59357C16.5111 6.59357 14.4074 8.06287 13.4889 10.1462C14.2963 9.98538 15.1259 9.89766 15.9778 9.89766C19.4444 9.90497 22.5704 11.3231 24.8074 13.5965Z" fill="#002776"/>
</g>
<defs>
<clipPath id="clip0_2_39">
<rect width="38" height="25" rx="3" fill="white"/>
</clipPath>
</defs>
</svg>
