<svg width="37" height="24" viewBox="0 0 37 24" fill="none" xmlns="http://www.w3.org/2000/svg">
<g clip-path="url(#clip0_2_44)">
<path d="M0 0H37V24H0V0Z" fill="white"/>
<path d="M0 0H37V1.84561H0V0ZM0 3.69123H37V5.53684H0V3.69123ZM0 7.38246H37V9.22807H0V7.38246ZM0 11.0737H37V12.9193H0V11.0737ZM0 14.7719H37V16.6175H0V14.7719ZM0 18.4632H37V20.3088H0V18.4632ZM0 22.1544H37V24H0V22.1544Z" fill="#D80027"/>
<path d="M0 0H18.5V12.9193H0V0Z" fill="#2E52B2"/>
<path d="M3.44757 9.74737L3.15907 8.84913L2.84172 9.74737H1.88967L2.66141 10.2877L2.37291 11.186L3.15907 10.6316L3.92359 11.186L3.62788 10.2877L4.41404 9.74737H3.44757ZM7.50819 9.74737L7.21248 8.84913L6.90955 9.74737H5.95751L6.72924 10.2877L6.44074 11.186L7.21248 10.6316L7.99143 11.186L7.70293 10.2877L8.47466 9.74737H7.50819ZM11.5832 9.74737L11.2731 8.84913L10.9846 9.74737H10.0109L10.8043 10.2877L10.5014 11.186L11.2731 10.6316L12.0665 11.186L11.7636 10.2877L12.5353 9.74737H11.5832ZM15.6367 9.74737L15.3482 8.84913L15.0452 9.74737H14.086L14.8649 10.2877L14.5764 11.186L15.3482 10.6316L16.1271 11.186L15.817 10.2877L16.6103 9.74737H15.6367ZM7.21248 5.28422L6.90955 6.18246H5.95751L6.72924 6.73685L6.44074 7.62106L7.21248 7.07369L7.99143 7.62106L7.70293 6.73685L8.47466 6.18246H7.50819L7.21248 5.28422ZM3.15907 5.28422L2.84172 6.18246H1.88967L2.66141 6.73685L2.37291 7.62106L3.15907 7.07369L3.92359 7.62106L3.62788 6.73685L4.41404 6.18246H3.44757L3.15907 5.28422ZM11.2731 5.28422L10.9846 6.18246H10.0109L10.8043 6.73685L10.5014 7.62106L11.2731 7.07369L12.0665 7.62106L11.7636 6.73685L12.5353 6.18246H11.5832L11.2731 5.28422ZM15.3482 5.28422L15.0452 6.18246H14.086L14.8649 6.73685L14.5764 7.62106L15.3482 7.07369L16.1271 7.62106L15.817 6.73685L16.6103 6.18246H15.6367L15.3482 5.28422ZM3.15907 1.73334L2.84172 2.61755H1.88967L2.66141 3.17193L2.37291 4.06316L3.15907 3.50878L3.92359 4.06316L3.62788 3.17193L4.41404 2.61755H3.44757L3.15907 1.73334ZM7.21248 1.73334L6.90955 2.61755H5.95751L6.72924 3.17193L6.44074 4.06316L7.21248 3.50878L7.99143 4.06316L7.70293 3.17193L8.47466 2.61755H7.50819L7.21248 1.73334ZM11.2731 1.73334L10.9846 2.61755H10.0109L10.8043 3.17193L10.5014 4.06316L11.2731 3.50878L12.0665 4.06316L11.7636 3.17193L12.5353 2.61755H11.5832L11.2731 1.73334ZM15.3482 1.73334L15.0452 2.61755H14.086L14.8649 3.17193L14.5764 4.06316L15.3482 3.50878L16.1271 4.06316L15.817 3.17193L16.6103 2.61755H15.6367L15.3482 1.73334Z" fill="white"/>
</g>
<defs>
<clipPath id="clip0_2_44">
<rect width="37" height="24" rx="3" fill="white"/>
</clipPath>
</defs>
</svg>
